<?xml version="1.0" encoding="UTF-8"?>
<svg version="1.1" xmlns="http://www.w3.org/2000/svg" width="192" height="192">
<path d="M0 0 C1.12133835 -0.00525696 2.2426767 -0.01051392 3.397995 -0.01593018 C7.08700687 -0.0290828 10.7755837 -0.0204091 14.46459961 -0.01025391 C17.03714582 -0.01227585 19.60969147 -0.01518829 22.18223572 -0.01895142 C27.56621302 -0.02336825 32.95002814 -0.01725192 38.33398438 -0.00292969 C44.54503195 0.01340268 50.75578413 0.00809888 56.96682459 -0.0084089 C62.96082367 -0.02369774 68.95467903 -0.02203604 74.94869804 -0.0132637 C77.49117512 -0.01126487 80.03365976 -0.01370982 82.57612801 -0.02070236 C86.1303814 -0.02833362 89.68406985 -0.01668861 93.23828125 0 C94.28523163 -0.00607269 95.33218201 -0.01214539 96.41085815 -0.0184021 C105.00981457 0.05627442 110.61274478 2.01330416 117.04663086 7.84130859 C121.50154502 12.41163504 122.67301431 17.03043361 122.69488525 23.22590637 C122.7005954 24.19733078 122.70630554 25.16875519 122.71218872 26.1696167 C122.71386551 27.75857758 122.71386551 27.75857758 122.71557617 29.37963867 C122.72054108 30.50039291 122.72550598 31.62114716 122.73062134 32.77586365 C122.74523596 36.48648694 122.75204369 40.19706749 122.75756836 43.90771484 C122.7633202 46.48597719 122.76907793 49.06423951 122.77484131 51.64250183 C122.78400627 56.35920588 122.79030751 61.07589285 122.79333806 65.79260427 C122.79781682 72.72421211 122.81535961 79.65562258 122.84433866 86.58717042 C122.86860137 92.60035479 122.87628437 98.61344612 122.87801361 104.62668419 C122.8810398 107.18033612 122.88906714 109.73398723 122.90219879 112.28760719 C122.91926531 115.86140498 122.91737726 119.43472285 122.91088867 123.00854492 C122.92010345 124.06177948 122.92931824 125.11501404 122.93881226 126.20016479 C122.88977309 134.82853036 120.94925964 140.42447552 115.10131836 146.88037109 C110.53099192 151.33528525 105.91219334 152.50675454 99.71672058 152.52862549 C98.74529617 152.53433563 97.77387177 152.54004578 96.77301025 152.54592896 C95.713703 152.54704681 94.65439575 152.54816467 93.56298828 152.54931641 C92.44223404 152.55428131 91.3214798 152.55924622 90.16676331 152.56436157 C86.45614001 152.57897619 82.74555947 152.58578392 79.03491211 152.59130859 C76.45664977 152.59706043 73.87838744 152.60281816 71.30012512 152.60858154 C66.58342107 152.6177465 61.86673411 152.62404774 57.15002269 152.62707829 C50.21841484 152.63155706 43.28700438 152.64909984 36.35545653 152.67807889 C30.34227216 152.70234161 24.32918084 152.7100246 18.31594276 152.71175385 C15.76229083 152.71478003 13.20863972 152.72280738 10.65501976 152.73593903 C7.08122198 152.75300555 3.50790411 152.7511175 -0.06591797 152.74462891 C-1.11915253 152.75384369 -2.17238708 152.76305847 -3.25753784 152.77255249 C-11.04457403 152.72829501 -16.63027423 151.39069151 -22.69555664 146.20068359 C-23.34008789 145.67087891 -23.98461914 145.14107422 -24.64868164 144.59521484 C-29.9001761 138.1450097 -29.87980547 130.86905562 -29.83374023 122.94262695 C-29.83899719 121.8212886 -29.84425415 120.69995026 -29.84967041 119.54463196 C-29.86282304 115.85562008 -29.85414934 112.16704325 -29.84399414 108.47802734 C-29.84601608 105.90548114 -29.84892853 103.33293549 -29.85269165 100.76039124 C-29.85710849 95.37641393 -29.85099216 89.99259881 -29.83666992 84.60864258 C-29.82033756 78.397595 -29.82564136 72.18684282 -29.84214914 65.97580236 C-29.85743797 59.98180328 -29.85577628 53.98794792 -29.84700394 47.99392891 C-29.8450051 45.45145183 -29.84745005 42.90896719 -29.8544426 40.36649895 C-29.86207385 36.81224555 -29.85042885 33.2585571 -29.83374023 29.7043457 C-29.83981293 28.65739532 -29.84588562 27.61044495 -29.85214233 26.5317688 C-29.78476283 18.77305934 -28.42876361 13.18091003 -23.25805664 7.13818359 C-22.72825195 6.49365234 -22.19844727 5.84912109 -21.65258789 5.18505859 C-15.20238274 -0.06643586 -7.92642867 -0.04606523 0 0 Z " fill="#85CD6D" transform="translate(49.445556640625,21.61181640625)"/>
<path d="M0 0 C2.53515625 1.07885742 2.53515625 1.07885742 5.0625 2.60546875 C6.01439209 3.17104492 6.96628418 3.73662109 7.94702148 4.31933594 C9.45824585 5.24407715 9.45824585 5.24407715 11 6.1875 C13.13671605 7.46745243 15.27343487 8.74740023 17.41015625 10.02734375 C18.49699707 10.68460449 19.58383789 11.34186523 20.70361328 12.01904297 C23.93133951 13.95873862 27.17734444 15.86255186 30.43359375 17.75390625 C31.44357422 18.34212158 32.45355469 18.93033691 33.49414062 19.53637695 C35.43026165 20.6635861 37.36772696 21.78848996 39.30664062 22.91088867 C40.60698242 23.67429565 40.60698242 23.67429565 41.93359375 24.453125 C42.69728271 24.89817383 43.46097168 25.34322266 44.24780273 25.80175781 C46 27 46 27 47 29 C47.11066885 30.6736526 47.15915305 32.35159601 47.17700195 34.02880859 C47.19625481 35.60086563 47.19625481 35.60086563 47.21589661 37.2046814 C47.22328354 38.34112091 47.23067047 39.47756042 47.23828125 40.6484375 C47.246353 41.81251129 47.25442474 42.97658508 47.26274109 44.17593384 C47.27658918 46.64233914 47.28730807 49.10876366 47.29516602 51.57519531 C47.31239773 55.35258097 47.35628111 59.12909594 47.40039062 62.90625 C47.41051553 65.29947271 47.41903226 67.69270288 47.42578125 70.0859375 C47.44328934 71.21832855 47.46079742 72.3507196 47.47883606 73.51742554 C47.47591049 74.57176788 47.47298492 75.62611023 47.4699707 76.71240234 C47.47583694 77.63902679 47.48170319 78.56565125 47.48774719 79.52035522 C46.85056672 82.75969981 45.49899374 83.9160979 43 86 C40.85961914 87.36523438 40.85961914 87.36523438 38.53515625 88.59375 C37.66246094 89.06135742 36.78976563 89.52896484 35.890625 90.01074219 C34.95734375 90.50219727 34.0240625 90.99365234 33.0625 91.5 C27.01347893 94.72439474 20.99355917 97.9679298 15.08984375 101.453125 C14.15068115 102.00548828 13.21151855 102.55785156 12.24389648 103.12695312 C10.44955188 104.18832895 8.66099948 105.25957461 6.87915039 106.34179688 C-1.17774037 111.08254808 -1.17774037 111.08254808 -6 110 C-9.64179179 108.3144516 -13.05619748 106.30500931 -16.5 104.25 C-18.54447405 103.05800908 -20.5900787 101.86795557 -22.63671875 100.6796875 C-24.20558838 99.76461426 -24.20558838 99.76461426 -25.80615234 98.83105469 C-31.84728264 95.3676334 -38.00626448 92.11518347 -44.16796875 88.87207031 C-45.03679688 88.40639648 -45.905625 87.94072266 -46.80078125 87.4609375 C-47.56559814 87.05665527 -48.33041504 86.65237305 -49.1184082 86.23583984 C-51 85 -51 85 -53 82 C-53.26742554 79.61610413 -53.26742554 79.61610413 -53.29052734 76.76586914 C-53.30328705 75.69788589 -53.31604675 74.62990265 -53.32919312 73.52955627 C-53.33141876 72.37640427 -53.33364441 71.22325226 -53.3359375 70.03515625 C-53.3425943 68.85030136 -53.3492511 67.66544647 -53.35610962 66.44468689 C-53.36624154 63.93718012 -53.37092647 61.42964636 -53.37060547 58.92211914 C-53.37497883 55.08109236 -53.41129564 51.24121403 -53.44921875 47.40039062 C-53.45508663 44.96614977 -53.45905622 42.53190345 -53.4609375 40.09765625 C-53.47530853 38.94652847 -53.48967957 37.7954007 -53.50448608 36.60939026 C-53.49833282 35.53825485 -53.49217957 34.46711945 -53.48583984 33.36352539 C-53.48868988 32.42215225 -53.49153992 31.48077911 -53.49447632 30.51087952 C-52.85035314 27.2401148 -51.53299852 26.09828654 -49 24 C-47.12640346 22.81918337 -45.20972331 21.70527329 -43.265625 20.64453125 C-42.14115967 20.02586182 -41.01669434 19.40719238 -39.8581543 18.76977539 C-38.65562468 18.11700293 -37.45290306 17.46458406 -36.25 16.8125 C-34.41151307 15.8085075 -32.57399123 14.80276669 -30.73661804 13.79673767 C-29.52215394 13.13190179 -28.30724078 12.46788553 -27.09187317 11.80470276 C-23.65428279 9.92471834 -20.2481996 8.00207682 -16.87109375 6.015625 C-16.14825195 5.5930542 -15.42541016 5.1704834 -14.68066406 4.73510742 C-13.39668599 3.97972444 -12.11817114 3.21493757 -10.84667969 2.4387207 C-6.99991311 0.19513969 -4.41418124 -0.35780391 0 0 Z " fill="#86CD6F" transform="translate(99,43)"/>
<path d="M0 0 C1.67542976 0.28604898 3.34385343 0.61781233 5 1 C4.92136719 1.845625 4.84273437 2.69125 4.76171875 3.5625 C4.67895752 7.39565161 4.85381535 10.32718934 6 14 C9.88491605 17.69120832 13.94635254 20.11182403 19 22 C22.01320984 21.76450936 23.99602004 20.50258697 26.5 18.875 C30 17 30 17 32.4375 17.25 C32.953125 17.4975 33.46875 17.745 34 18 C33.78515625 20.32421875 33.78515625 20.32421875 33 23 C30.93359375 24.58203125 30.93359375 24.58203125 28.4375 25.8125 C27.61121094 26.23144531 26.78492188 26.65039062 25.93359375 27.08203125 C25.29550781 27.38496094 24.65742187 27.68789062 24 28 C23.0449457 37.03301098 23.0449457 37.03301098 24 46 C26.88593723 49.28085495 29.86136121 50.7140658 34 52 C33.67 53.65 33.34 55.3 33 57 C30.05560156 56.52889625 27.9920924 55.42920816 25.5 53.875 C22.38256369 51.7847913 22.38256369 51.7847913 20.1328125 52.19140625 C17.38303946 53.23390262 14.92918029 54.6064107 12.375 56.0625 C7.21882353 59 7.21882353 59 5 59 C5 63.29 5 67.58 5 72 C3.02 72.99 3.02 72.99 1 74 C0.34 73.34 -0.32 72.68 -1 72 C-0.96825615 70.12422721 -0.90026902 68.24898715 -0.8125 66.375 C-1.07456078 61.94135943 -1.48917452 60.47921322 -4.77734375 57.39453125 C-10.76582456 53.27050717 -10.76582456 53.27050717 -17.73046875 52.16796875 C-20.25229759 52.98417019 -20.25229759 52.98417019 -23.0625 55.125 C-26 57 -26 57 -28.375 56.75 C-28.91125 56.5025 -29.4475 56.255 -30 56 C-29.78515625 53.67578125 -29.78515625 53.67578125 -29 51 C-26.93359375 49.41796875 -26.93359375 49.41796875 -24.4375 48.1875 C-23.61121094 47.76855469 -22.78492187 47.34960938 -21.93359375 46.91796875 C-21.29550781 46.61503906 -20.65742187 46.31210938 -20 46 C-19.0449457 36.96698902 -19.0449457 36.96698902 -20 28 C-22.88593723 24.71914505 -25.86136121 23.2859342 -30 22 C-29.67 20.35 -29.34 18.7 -29 17 C-25.54835821 17.4060755 -23.84983505 18.10419609 -20.9375 20.125 C-18.32268453 22.22995469 -18.32268453 22.22995469 -16.203125 21.7890625 C-10.926004 19.8990298 -6.16315086 17.82458136 -2 14 C-0.71046896 9.58023635 -0.82140619 5.56406405 -1 1 C-0.67 0.67 -0.34 0.34 0 0 Z " fill="#F9FCF8" transform="translate(94,61)"/>
<path d="M0 0 C2.53515625 1.07885742 2.53515625 1.07885742 5.0625 2.60546875 C6.01439209 3.17104492 6.96628418 3.73662109 7.94702148 4.31933594 C9.45824585 5.24407715 9.45824585 5.24407715 11 6.1875 C13.13671605 7.46745243 15.27343487 8.74740023 17.41015625 10.02734375 C18.49699707 10.68460449 19.58383789 11.34186523 20.70361328 12.01904297 C23.93133951 13.95873862 27.17734444 15.86255186 30.43359375 17.75390625 C31.44357422 18.34212158 32.45355469 18.93033691 33.49414062 19.53637695 C35.43026165 20.6635861 37.36772696 21.78848996 39.30664062 22.91088867 C40.60698242 23.67429565 40.60698242 23.67429565 41.93359375 24.453125 C42.69728271 24.89817383 43.46097168 25.34322266 44.24780273 25.80175781 C46 27 46 27 47 29 C47.11066885 30.6736526 47.15915305 32.35159601 47.17700195 34.02880859 C47.19625481 35.60086563 47.19625481 35.60086563 47.21589661 37.2046814 C47.22328354 38.34112091 47.23067047 39.47756042 47.23828125 40.6484375 C47.246353 41.81251129 47.25442474 42.97658508 47.26274109 44.17593384 C47.27658918 46.64233914 47.28730807 49.10876366 47.29516602 51.57519531 C47.31239773 55.35258097 47.35628111 59.12909594 47.40039062 62.90625 C47.41051553 65.29947271 47.41903226 67.69270288 47.42578125 70.0859375 C47.44328934 71.21832855 47.46079742 72.3507196 47.47883606 73.51742554 C47.47591049 74.57176788 47.47298492 75.62611023 47.4699707 76.71240234 C47.47583694 77.63902679 47.48170319 78.56565125 47.48774719 79.52035522 C46.85056672 82.75969981 45.49899374 83.9160979 43 86 C40.85961914 87.36523438 40.85961914 87.36523438 38.53515625 88.59375 C37.66246094 89.06135742 36.78976563 89.52896484 35.890625 90.01074219 C34.95734375 90.50219727 34.0240625 90.99365234 33.0625 91.5 C27.01347893 94.72439474 20.99355917 97.9679298 15.08984375 101.453125 C14.15068115 102.00548828 13.21151855 102.55785156 12.24389648 103.12695312 C10.44955188 104.18832895 8.66099948 105.25957461 6.87915039 106.34179688 C-1.17774037 111.08254808 -1.17774037 111.08254808 -6 110 C-9.64179179 108.3144516 -13.05619748 106.30500931 -16.5 104.25 C-18.54447405 103.05800908 -20.5900787 101.86795557 -22.63671875 100.6796875 C-24.20558838 99.76461426 -24.20558838 99.76461426 -25.80615234 98.83105469 C-31.84728264 95.3676334 -38.00626448 92.11518347 -44.16796875 88.87207031 C-45.03679688 88.40639648 -45.905625 87.94072266 -46.80078125 87.4609375 C-47.56559814 87.05665527 -48.33041504 86.65237305 -49.1184082 86.23583984 C-51 85 -51 85 -53 82 C-53.26742554 79.61610413 -53.26742554 79.61610413 -53.29052734 76.76586914 C-53.30328705 75.69788589 -53.31604675 74.62990265 -53.32919312 73.52955627 C-53.33141876 72.37640427 -53.33364441 71.22325226 -53.3359375 70.03515625 C-53.3425943 68.85030136 -53.3492511 67.66544647 -53.35610962 66.44468689 C-53.36624154 63.93718012 -53.37092647 61.42964636 -53.37060547 58.92211914 C-53.37497883 55.08109236 -53.41129564 51.24121403 -53.44921875 47.40039062 C-53.45508663 44.96614977 -53.45905622 42.53190345 -53.4609375 40.09765625 C-53.47530853 38.94652847 -53.48967957 37.7954007 -53.50448608 36.60939026 C-53.49833282 35.53825485 -53.49217957 34.46711945 -53.48583984 33.36352539 C-53.48868988 32.42215225 -53.49153992 31.48077911 -53.49447632 30.51087952 C-52.85035314 27.2401148 -51.53299852 26.09828654 -49 24 C-47.12640346 22.81918337 -45.20972331 21.70527329 -43.265625 20.64453125 C-42.14115967 20.02586182 -41.01669434 19.40719238 -39.8581543 18.76977539 C-38.65562468 18.11700293 -37.45290306 17.46458406 -36.25 16.8125 C-34.41151307 15.8085075 -32.57399123 14.80276669 -30.73661804 13.79673767 C-29.52215394 13.13190179 -28.30724078 12.46788553 -27.09187317 11.80470276 C-23.65428279 9.92471834 -20.2481996 8.00207682 -16.87109375 6.015625 C-16.14825195 5.5930542 -15.42541016 5.1704834 -14.68066406 4.73510742 C-13.39668599 3.97972444 -12.11817114 3.21493757 -10.84667969 2.4387207 C-6.99991311 0.19513969 -4.41418124 -0.35780391 0 0 Z M-6.34985352 6.01293945 C-7.26694092 6.54105225 -8.18402832 7.06916504 -9.12890625 7.61328125 C-10.16595703 8.20302734 -11.20300781 8.79277344 -12.27148438 9.40039062 C-13.35751953 10.03138672 -14.44355469 10.66238281 -15.5625 11.3125 C-17.66763587 12.51750881 -19.77311361 13.72192054 -21.87890625 14.92578125 C-22.98121582 15.5595166 -24.08352539 16.19325195 -25.21923828 16.84619141 C-32.4355881 20.97497073 -39.72546569 24.97499345 -47 29 C-47.20291281 36.17113879 -47.34296574 43.34153759 -47.43945312 50.51489258 C-47.47967477 52.95462709 -47.53426154 55.3941689 -47.60351562 57.83325195 C-47.70061981 61.3411406 -47.7459407 64.8464811 -47.78125 68.35546875 C-47.84318542 69.99010323 -47.84318542 69.99010323 -47.90637207 71.65776062 C-48.0487392 77.1708043 -48.0487392 77.1708043 -45.37437439 81.71255493 C-43.30382237 83.02841142 -41.25124673 84.03065971 -39 85 C-37.9901001 85.58523437 -36.9802002 86.17046875 -35.93969727 86.7734375 C-34.51741821 87.56621094 -34.51741821 87.56621094 -33.06640625 88.375 C-32.00486328 88.96796875 -30.94332031 89.5609375 -29.84960938 90.171875 C-28.76486328 90.77515625 -27.68011719 91.3784375 -26.5625 92 C-25.48162109 92.60328125 -24.40074219 93.2065625 -23.28710938 93.828125 C-21.17240585 95.00794746 -19.0548085 96.18260088 -16.93408203 97.3515625 C-15.0766604 98.39510642 -13.23612163 99.46981196 -11.42138672 100.5859375 C-10.65197754 101.05257812 -9.88256836 101.51921875 -9.08984375 102 C-8.43749756 102.4125 -7.78515137 102.825 -7.11303711 103.25 C-3.08206527 104.68075049 0.20206648 103.36839371 3.95336914 101.63647461 C5.47885376 100.77807983 5.47885376 100.77807983 7.03515625 99.90234375 C8.17533203 99.26490234 9.31550781 98.62746094 10.49023438 97.97070312 C11.07893311 97.63562744 11.66763184 97.30055176 12.27416992 96.95532227 C14.02865783 95.95676116 15.79064018 94.97140485 17.55273438 93.98632812 C19.29958119 93.00366556 21.04667227 92.02044967 22.76634216 90.9909668 C25.73286456 89.21817191 28.45293963 87.82595085 31.70532227 86.57617188 C35.79714963 84.79220151 38.12079128 83.43944816 41 80 C43.20225843 73.23472917 42.99427042 66.04947128 42.85961914 59.01074219 C42.81260041 55.63221491 42.91997945 52.28244445 43.04101562 48.90625 C43.41217279 38.46061219 43.41217279 38.46061219 39.55844116 29.08926392 C35.87786589 25.80616503 31.65893567 23.82901299 27.14175415 21.93603516 C23.86789637 20.50522388 20.89702068 18.63953958 17.85546875 16.77734375 C15.63454078 15.49439932 13.41190761 14.21440183 11.1875 12.9375 C10.03309166 12.26907267 8.87879475 11.60045288 7.72460938 10.93164062 C1.01390294 6.22669659 1.01390294 6.22669659 -6.34985352 6.01293945 Z " fill="#F8FCF6" transform="translate(99,43)"/>
<path d="M0 0 C5.84605887 1.72629699 11.84469286 3.9075734 15.73828125 8.80859375 C18.07370854 14.49824021 18.07659248 21.12255106 15.73828125 26.80859375 C12.16753533 31.34754626 7.09929286 33.93902205 1.73828125 35.80859375 C-4.26015263 35.54940216 -10.51372519 32.32568126 -15.01806641 28.39941406 C-18.39640235 24.07800908 -17.99838791 18.1915208 -17.4375 12.9921875 C-16.75453141 9.68062627 -16.24123081 8.78589993 -13.8671875 6.15625 C-11.06004337 4.37876784 -8.33602871 3.0543344 -5.26171875 1.80859375 C-2.26171875 -0.19140625 -2.26171875 -0.19140625 0 0 Z " fill="#87CD70" transform="translate(96.26171875,80.19140625)"/>
</svg>
